INFO: Created TensorFlow Lite XNNPACK delegate for CPU.
W0000 00:00:1778436543.047579   31808 inference_feedback_manager.cc:121] Feedback manager requires a model with a single signature inference. Disabling support for feedback tensors.
ffmpeg version 8.1.1-full_build-www.gyan.dev Copyright (c) 2000-2026 the FFmpeg developers
  built with gcc 15.2.0 (Rev13, Built by MSYS2 project)
  configuration: --enable-gpl --enable-version3 --enable-static --disable-w32threads --disable-autodetect --enable-cairo --enable-fontconfig --enable-iconv --enable-gnutls --enable-lcms2 --enable-libxml2 --enable-gmp --enable-bzlib --enable-lzma --enable-libsnappy --enable-zlib --enable-librist --enable-libsrt --enable-libssh --enable-libzmq --enable-avisynth --enable-libbluray --enable-libcaca --enable-libdvdnav --enable-libdvdread --enable-sdl2 --enable-libaribb24 --enable-libaribcaption --enable-libdav1d --enable-libdavs2 --enable-libopenjpeg --enable-libquirc --enable-libuavs3d --enable-libxevd --enable-libzvbi --enable-liboapv --enable-libqrencode --enable-librav1e --enable-libsvtav1 --enable-libvvenc --enable-libwebp --enable-libx264 --enable-libx265 --enable-libxavs2 --enable-libxeve --enable-libxvid --enable-libaom --enable-libjxl --enable-libsvtjpegxs --enable-libvpx --enable-mediafoundation --enable-libass --enable-frei0r --enable-libfreetype --enable-libfribidi --enable-libharfbuzz --enable-liblensfun --enable-libvidstab --enable-libvmaf --enable-libzimg --enable-amf --enable-cuda-llvm --enable-cuvid --enable-dxva2 --enable-d3d11va --enable-d3d12va --enable-ffnvcodec --enable-libvpl --enable-nvdec --enable-nvenc --enable-vaapi --enable-libshaderc --enable-vulkan --enable-libplacebo --enable-opencl --enable-libcdio --enable-openal --enable-libgme --enable-libmodplug --enable-libopenmpt --enable-libopencore-amrwb --enable-libmp3lame --enable-libshine --enable-libtheora --enable-libtwolame --enable-libvo-amrwbenc --enable-libcodec2 --enable-libilbc --enable-libgsm --enable-liblc3 --enable-libopencore-amrnb --enable-libopus --enable-libspeex --enable-libvorbis --enable-ladspa --enable-libbs2b --enable-libflite --enable-libmysofa --enable-librubberband --enable-libsoxr --enable-chromaprint --enable-whisper
  libavutil      60. 26.101 / 60. 26.101
  libavcodec     62. 28.101 / 62. 28.101
  libavformat    62. 12.101 / 62. 12.101
  libavdevice    62.  3.101 / 62.  3.101
  libavfilter    11. 14.101 / 11. 14.101
  libswscale      9.  5.101 /  9.  5.101
  libswresample   6.  3.101 /  6.  3.101
Input #0, avi, from 'C:\Users\Macie\AppData\Local\Temp\face_track_c0rlpm77\segment_1_19-54_36_20-31_18_silent.avi':
  Metadata:
    software        : Lavf62.12.101
  Duration: 00:00:36.82, start: 0.000000, bitrate: 7091 kb/s
  Stream #0:0: Video: h264 (High) (H264 / 0x34363248), yuvj420p(pc, bt470bg/unknown/unknown, progressive), 1080x1920 [SAR 1:1 DAR 9:16], 7081 kb/s, 60 fps, 60 tbr, 60 tbn
Input #1, mov,mp4,m4a,3gp,3g2,mj2, from 'C:\Users\Macie\AppData\Local\Temp\face_track_c0rlpm77\segment_1_19-54_36_20-31_18_audio.m4a':
  Metadata:
    major_brand     : M4A 
    minor_version   : 512
    compatible_brands: M4A isomiso2
    encoder         : Lavf62.12.101
  Duration: 00:00:36.82, start: 0.000000, bitrate: 193 kb/s
  Stream #1:0[0x1](eng): Audio: aac (LC) (mp4a / 0x6134706D), 48000 Hz, stereo, fltp, 191 kb/s (default)
    Metadata:
      handler_name    : SoundHandler
Stream mapping:
  Stream #0:0 -> #0:0 (h264 (native) -> h264 (libx264))
  Stream #1:0 -> #0:1 (aac (native) -> aac (native))
Press [q] to stop, [?] for help
[swscaler @ 000001c004221400] deprecated pixel format used, make sure you did set range correctly
[libx264 @ 000001c00285f840] using SAR=1/1
[libx264 @ 000001c00285f840] using cpu capabilities: MMX2 SSE2Fast SSSE3 SSE4.2 AVX FMA3 BMI2 AVX2 AVX512
[libx264 @ 000001c00285f840] profile High, level 4.2, 4:2:0, 8-bit
[libx264 @ 000001c00285f840] 264 - core 165 r3223 0480cb0 - H.264/MPEG-4 AVC codec - Copyleft 2003-2025 - http://www.videolan.org/x264.html - options: cabac=1 ref=1 deblock=1:0:0 analyse=0x3:0x3 me=dia subme=1 psy=1 psy_rd=1.00:0.00 mixed_ref=0 me_range=16 chroma_me=1 trellis=0 8x8dct=1 cqm=0 deadzone=21,11 fast_pskip=1 chroma_qp_offset=0 threads=24 lookahead_threads=4 sliced_threads=0 nr=0 decimate=1 interlaced=0 bluray_compat=0 constrained_intra=0 bframes=3 b_pyramid=2 b_adapt=1 b_bias=0 direct=1 weightb=1 open_gop=0 weightp=1 keyint=250 keyint_min=25 scenecut=40 intra_refresh=0 rc=crf mbtree=0 crf=23.0 qcomp=0.60 qpmin=0 qpmax=69 qpstep=4 ip_ratio=1.40 pb_ratio=1.30 aq=1:1.00
Output #0, mp4, to 'D:\PythonProjects\viral-cutter-ai\benchmarks\runs\20260510_171633\roman_giertych_commentary\manual_generic\cuts_raw\segment_1_19-54_36_20-31_18.mp4':
  Metadata:
    software        : Lavf62.12.101
    encoder         : Lavf62.12.101
  Stream #0:0: Video: h264 (avc1 / 0x31637661), yuv420p(pc, bt470bg/unknown/unknown, progressive), 1080x1920 [SAR 1:1 DAR 9:16], q=2-31, 60 fps, 15360 tbn
    Metadata:
      encoder         : Lavc62.28.101 libx264
    Side data:
      CPB properties: bitrate max/min/avg: 0/0/0 buffer size: 0 vbv_delay: N/A
  Stream #0:1(eng): Audio: aac (LC) (mp4a / 0x6134706D), 48000 Hz, stereo, fltp, 192 kb/s (default)
    Metadata:
      encoder         : Lavc62.28.101 aac
      handler_name    : SoundHandler
frame=  350 fps=0.0 q=20.0 size=    3584KiB time=00:00:05.83 bitrate=5033.2kbits/s speed=11.4x elapsed=0:00:00.51    frame=  573 fps=554 q=26.0 size=    5376KiB time=00:00:09.55 bitrate=4611.6kbits/s speed=9.23x elapsed=0:00:01.03    frame=  879 fps=567 q=25.0 size=    7680KiB time=00:00:14.65 bitrate=4294.5kbits/s speed=9.45x elapsed=0:00:01.55    frame= 1259 fps=610 q=21.0 size=    9472KiB time=00:00:20.98 bitrate=3697.9kbits/s speed=10.2x elapsed=0:00:02.06    frame= 1708 fps=662 q=23.0 size=   11776KiB time=00:00:29.03 bitrate=3322.6kbits/s speed=11.2x elapsed=0:00:02.58    [mp4 @ 000001c00295ac80] Starting second pass: moving the moov atom to the beginning of the file
[out#0/mp4 @ 000001c002873dc0] video:14587KiB audio:877KiB subtitle:0KiB other streams:0KiB global headers:0KiB muxing overhead: 0.359785%
frame= 2207 fps=722 q=-1.0 Lsize=   15520KiB time=00:00:36.78 bitrate=3456.3kbits/s speed=  12x elapsed=0:00:03.05    
[libx264 @ 000001c00285f840] frame I:12    Avg QP:15.51  size: 78420
[libx264 @ 000001c00285f840] frame P:938   Avg QP:17.19  size: 11765
[libx264 @ 000001c00285f840] frame B:1257  Avg QP:19.49  size:  2355
[libx264 @ 000001c00285f840] consecutive B-frames: 20.0% 11.9%  1.1% 67.1%
[libx264 @ 000001c00285f840] mb I  I16..4: 24.3% 46.0% 29.7%
[libx264 @ 000001c00285f840] mb P  I16..4:  4.4%  4.8%  0.6%  P16..4: 29.4%  0.0%  0.0%  0.0%  0.0%    skip:60.8%
[libx264 @ 000001c00285f840] mb B  I16..4:  0.3%  0.2%  0.0%  B16..8:  9.8%  0.0%  0.0%  direct: 4.4%  skip:85.3%  L0:43.2% L1:51.8% BI: 5.0%
[libx264 @ 000001c00285f840] 8x8 transform intra:48.4% inter:47.5%
[libx264 @ 000001c00285f840] coded y,uvDC,uvAC intra: 28.8% 36.1% 13.5% inter: 2.9% 6.1% 0.0%
[libx264 @ 000001c00285f840] i16 v,h,dc,p: 55% 33%  4%  8%
[libx264 @ 000001c00285f840] i8 v,h,dc,ddl,ddr,vr,hd,vl,hu: 19% 25% 18%  5%  7%  7%  7%  6%  6%
[libx264 @ 000001c00285f840] i4 v,h,dc,ddl,ddr,vr,hd,vl,hu: 20% 32%  8%  7%  6%  6%  8%  5%  8%
[libx264 @ 000001c00285f840] i8c dc,h,v,p: 46% 23% 20% 11%
[libx264 @ 000001c00285f840] Weighted P-Frames: Y:0.1% UV:0.1%
[libx264 @ 000001c00285f840] kb/s:3248.50
[aac @ 000001c0027b8f80] Qavg: 702.042
W0000 00:00:1778436580.593559   31912 inference_feedback_manager.cc:121] Feedback manager requires a model with a single signature inference. Disabling support for feedback tensors.
ffmpeg version 8.1.1-full_build-www.gyan.dev Copyright (c) 2000-2026 the FFmpeg developers
  built with gcc 15.2.0 (Rev13, Built by MSYS2 project)
  configuration: --enable-gpl --enable-version3 --enable-static --disable-w32threads --disable-autodetect --enable-cairo --enable-fontconfig --enable-iconv --enable-gnutls --enable-lcms2 --enable-libxml2 --enable-gmp --enable-bzlib --enable-lzma --enable-libsnappy --enable-zlib --enable-librist --enable-libsrt --enable-libssh --enable-libzmq --enable-avisynth --enable-libbluray --enable-libcaca --enable-libdvdnav --enable-libdvdread --enable-sdl2 --enable-libaribb24 --enable-libaribcaption --enable-libdav1d --enable-libdavs2 --enable-libopenjpeg --enable-libquirc --enable-libuavs3d --enable-libxevd --enable-libzvbi --enable-liboapv --enable-libqrencode --enable-librav1e --enable-libsvtav1 --enable-libvvenc --enable-libwebp --enable-libx264 --enable-libx265 --enable-libxavs2 --enable-libxeve --enable-libxvid --enable-libaom --enable-libjxl --enable-libsvtjpegxs --enable-libvpx --enable-mediafoundation --enable-libass --enable-frei0r --enable-libfreetype --enable-libfribidi --enable-libharfbuzz --enable-liblensfun --enable-libvidstab --enable-libvmaf --enable-libzimg --enable-amf --enable-cuda-llvm --enable-cuvid --enable-dxva2 --enable-d3d11va --enable-d3d12va --enable-ffnvcodec --enable-libvpl --enable-nvdec --enable-nvenc --enable-vaapi --enable-libshaderc --enable-vulkan --enable-libplacebo --enable-opencl --enable-libcdio --enable-openal --enable-libgme --enable-libmodplug --enable-libopenmpt --enable-libopencore-amrwb --enable-libmp3lame --enable-libshine --enable-libtheora --enable-libtwolame --enable-libvo-amrwbenc --enable-libcodec2 --enable-libilbc --enable-libgsm --enable-liblc3 --enable-libopencore-amrnb --enable-libopus --enable-libspeex --enable-libvorbis --enable-ladspa --enable-libbs2b --enable-libflite --enable-libmysofa --enable-librubberband --enable-libsoxr --enable-chromaprint --enable-whisper
  libavutil      60. 26.101 / 60. 26.101
  libavcodec     62. 28.101 / 62. 28.101
  libavformat    62. 12.101 / 62. 12.101
  libavdevice    62.  3.101 / 62.  3.101
  libavfilter    11. 14.101 / 11. 14.101
  libswscale      9.  5.101 /  9.  5.101
  libswresample   6.  3.101 /  6.  3.101
Input #0, avi, from 'C:\Users\Macie\AppData\Local\Temp\face_track_imosjfo8\segment_2_19-09_66_19-41_82_silent.avi':
  Metadata:
    software        : Lavf62.12.101
  Duration: 00:00:32.17, start: 0.000000, bitrate: 5554 kb/s
  Stream #0:0: Video: h264 (High) (H264 / 0x34363248), yuvj420p(pc, bt470bg/unknown/unknown, progressive), 1080x1920 [SAR 1:1 DAR 9:16], 5544 kb/s, 60 fps, 60 tbr, 60 tbn
Input #1, mov,mp4,m4a,3gp,3g2,mj2, from 'C:\Users\Macie\AppData\Local\Temp\face_track_imosjfo8\segment_2_19-09_66_19-41_82_audio.m4a':
  Metadata:
    major_brand     : M4A 
    minor_version   : 512
    compatible_brands: M4A isomiso2
    encoder         : Lavf62.12.101
  Duration: 00:00:32.16, start: 0.000000, bitrate: 194 kb/s
  Stream #1:0[0x1](eng): Audio: aac (LC) (mp4a / 0x6134706D), 48000 Hz, stereo, fltp, 192 kb/s (default)
    Metadata:
      handler_name    : SoundHandler
Stream mapping:
  Stream #0:0 -> #0:0 (h264 (native) -> h264 (libx264))
  Stream #1:0 -> #0:1 (aac (native) -> aac (native))
Press [q] to stop, [?] for help
[swscaler @ 000002dca7772500] deprecated pixel format used, make sure you did set range correctly
[libx264 @ 000002dca3d49100] using SAR=1/1
[libx264 @ 000002dca3d49100] using cpu capabilities: MMX2 SSE2Fast SSSE3 SSE4.2 AVX FMA3 BMI2 AVX2 AVX512
[libx264 @ 000002dca3d49100] profile High, level 4.2, 4:2:0, 8-bit
[libx264 @ 000002dca3d49100] 264 - core 165 r3223 0480cb0 - H.264/MPEG-4 AVC codec - Copyleft 2003-2025 - http://www.videolan.org/x264.html - options: cabac=1 ref=1 deblock=1:0:0 analyse=0x3:0x3 me=dia subme=1 psy=1 psy_rd=1.00:0.00 mixed_ref=0 me_range=16 chroma_me=1 trellis=0 8x8dct=1 cqm=0 deadzone=21,11 fast_pskip=1 chroma_qp_offset=0 threads=24 lookahead_threads=4 sliced_threads=0 nr=0 decimate=1 interlaced=0 bluray_compat=0 constrained_intra=0 bframes=3 b_pyramid=2 b_adapt=1 b_bias=0 direct=1 weightb=1 open_gop=0 weightp=1 keyint=250 keyint_min=25 scenecut=40 intra_refresh=0 rc=crf mbtree=0 crf=23.0 qcomp=0.60 qpmin=0 qpmax=69 qpstep=4 ip_ratio=1.40 pb_ratio=1.30 aq=1:1.00
Output #0, mp4, to 'D:\PythonProjects\viral-cutter-ai\benchmarks\runs\20260510_171633\roman_giertych_commentary\manual_generic\cuts_raw\segment_2_19-09_66_19-41_82.mp4':
  Metadata:
    software        : Lavf62.12.101
    encoder         : Lavf62.12.101
  Stream #0:0: Video: h264 (avc1 / 0x31637661), yuv420p(pc, bt470bg/unknown/unknown, progressive), 1080x1920 [SAR 1:1 DAR 9:16], q=2-31, 60 fps, 15360 tbn
    Metadata:
      encoder         : Lavc62.28.101 libx264
    Side data:
      CPB properties: bitrate max/min/avg: 0/0/0 buffer size: 0 vbv_delay: N/A
  Stream #0:1(eng): Audio: aac (LC) (mp4a / 0x6134706D), 48000 Hz, stereo, fltp, 192 kb/s (default)
    Metadata:
      encoder         : Lavc62.28.101 aac
      handler_name    : SoundHandler
frame=  349 fps=0.0 q=23.0 size=    1792KiB time=00:00:05.81 bitrate=2523.9kbits/s speed=11.1x elapsed=0:00:00.52    frame=  573 fps=552 q=25.0 size=    3840KiB time=00:00:09.55 bitrate=3294.0kbits/s speed=9.19x elapsed=0:00:01.03    frame=  870 fps=563 q=22.0 size=    5120KiB time=00:00:14.50 bitrate=2892.6kbits/s speed=9.38x elapsed=0:00:01.54    frame= 1262 fps=610 q=22.0 size=    7168KiB time=00:00:21.03 bitrate=2791.8kbits/s speed=10.2x elapsed=0:00:02.07    frame= 1740 fps=674 q=21.0 size=    9984KiB time=00:00:29.56 bitrate=2766.1kbits/s speed=11.4x elapsed=0:00:02.58    [mp4 @ 000002dca5b20900] Starting second pass: moving the moov atom to the beginning of the file
[out#0/mp4 @ 000002dca3d47640] video:10072KiB audio:763KiB subtitle:0KiB other streams:0KiB global headers:0KiB muxing overhead: 0.473682%
frame= 1928 fps=701 q=-1.0 Lsize=   10886KiB time=00:00:32.13 bitrate=2775.4kbits/s speed=11.7x elapsed=0:00:02.74    
[libx264 @ 000002dca3d49100] frame I:10    Avg QP:15.52  size: 69242
[libx264 @ 000002dca3d49100] frame P:562   Avg QP:18.12  size: 11282
[libx264 @ 000002dca3d49100] frame B:1356  Avg QP:19.62  size:  2419
[libx264 @ 000002dca3d49100] consecutive B-frames:  2.6% 10.3%  1.4% 85.7%
[libx264 @ 000002dca3d49100] mb I  I16..4: 25.1% 49.7% 25.2%
[libx264 @ 000002dca3d49100] mb P  I16..4:  4.5%  5.7%  0.5%  P16..4: 31.8%  0.0%  0.0%  0.0%  0.0%    skip:57.5%
[libx264 @ 000002dca3d49100] mb B  I16..4:  0.3%  0.3%  0.0%  B16..8: 10.0%  0.0%  0.0%  direct: 4.6%  skip:84.9%  L0:43.1% L1:51.6% BI: 5.2%
[libx264 @ 000002dca3d49100] 8x8 transform intra:52.3% inter:47.8%
[libx264 @ 000002dca3d49100] coded y,uvDC,uvAC intra: 30.2% 41.4% 14.1% inter: 1.5% 6.5% 0.0%
[libx264 @ 000002dca3d49100] i16 v,h,dc,p: 56% 28%  6% 11%
[libx264 @ 000002dca3d49100] i8 v,h,dc,ddl,ddr,vr,hd,vl,hu: 21% 21% 16%  6%  7%  8%  8%  7%  6%
[libx264 @ 000002dca3d49100] i4 v,h,dc,ddl,ddr,vr,hd,vl,hu: 28% 20%  9%  9%  7%  8%  6%  7%  7%
[libx264 @ 000002dca3d49100] i8c dc,h,v,p: 44% 22% 22% 12%
[libx264 @ 000002dca3d49100] Weighted P-Frames: Y:0.7% UV:0.0%
[libx264 @ 000002dca3d49100] kb/s:2567.54
[aac @ 000002dca5b67880] Qavg: 695.908
W0000 00:00:1778436613.582895   23628 inference_feedback_manager.cc:121] Feedback manager requires a model with a single signature inference. Disabling support for feedback tensors.
ffmpeg version 8.1.1-full_build-www.gyan.dev Copyright (c) 2000-2026 the FFmpeg developers
  built with gcc 15.2.0 (Rev13, Built by MSYS2 project)
  configuration: --enable-gpl --enable-version3 --enable-static --disable-w32threads --disable-autodetect --enable-cairo --enable-fontconfig --enable-iconv --enable-gnutls --enable-lcms2 --enable-libxml2 --enable-gmp --enable-bzlib --enable-lzma --enable-libsnappy --enable-zlib --enable-librist --enable-libsrt --enable-libssh --enable-libzmq --enable-avisynth --enable-libbluray --enable-libcaca --enable-libdvdnav --enable-libdvdread --enable-sdl2 --enable-libaribb24 --enable-libaribcaption --enable-libdav1d --enable-libdavs2 --enable-libopenjpeg --enable-libquirc --enable-libuavs3d --enable-libxevd --enable-libzvbi --enable-liboapv --enable-libqrencode --enable-librav1e --enable-libsvtav1 --enable-libvvenc --enable-libwebp --enable-libx264 --enable-libx265 --enable-libxavs2 --enable-libxeve --enable-libxvid --enable-libaom --enable-libjxl --enable-libsvtjpegxs --enable-libvpx --enable-mediafoundation --enable-libass --enable-frei0r --enable-libfreetype --enable-libfribidi --enable-libharfbuzz --enable-liblensfun --enable-libvidstab --enable-libvmaf --enable-libzimg --enable-amf --enable-cuda-llvm --enable-cuvid --enable-dxva2 --enable-d3d11va --enable-d3d12va --enable-ffnvcodec --enable-libvpl --enable-nvdec --enable-nvenc --enable-vaapi --enable-libshaderc --enable-vulkan --enable-libplacebo --enable-opencl --enable-libcdio --enable-openal --enable-libgme --enable-libmodplug --enable-libopenmpt --enable-libopencore-amrwb --enable-libmp3lame --enable-libshine --enable-libtheora --enable-libtwolame --enable-libvo-amrwbenc --enable-libcodec2 --enable-libilbc --enable-libgsm --enable-liblc3 --enable-libopencore-amrnb --enable-libopus --enable-libspeex --enable-libvorbis --enable-ladspa --enable-libbs2b --enable-libflite --enable-libmysofa --enable-librubberband --enable-libsoxr --enable-chromaprint --enable-whisper
  libavutil      60. 26.101 / 60. 26.101
  libavcodec     62. 28.101 / 62. 28.101
  libavformat    62. 12.101 / 62. 12.101
  libavdevice    62.  3.101 / 62.  3.101
  libavfilter    11. 14.101 / 11. 14.101
  libswscale      9.  5.101 /  9.  5.101
  libswresample   6.  3.101 /  6.  3.101
Input #0, avi, from 'C:\Users\Macie\AppData\Local\Temp\face_track_hb34h68f\segment_3_00-53_90_01-26_86_silent.avi':
  Metadata:
    software        : Lavf62.12.101
  Duration: 00:00:32.97, start: 0.000000, bitrate: 7350 kb/s
  Stream #0:0: Video: h264 (High) (H264 / 0x34363248), yuvj420p(pc, bt470bg/unknown/unknown, progressive), 1080x1920 [SAR 1:1 DAR 9:16], 7340 kb/s, 60 fps, 60 tbr, 60 tbn
Input #1, mov,mp4,m4a,3gp,3g2,mj2, from 'C:\Users\Macie\AppData\Local\Temp\face_track_hb34h68f\segment_3_00-53_90_01-26_86_audio.m4a':
  Metadata:
    major_brand     : M4A 
    minor_version   : 512
    compatible_brands: M4A isomiso2
    encoder         : Lavf62.12.101
  Duration: 00:00:32.96, start: 0.000000, bitrate: 193 kb/s
  Stream #1:0[0x1](eng): Audio: aac (LC) (mp4a / 0x6134706D), 48000 Hz, stereo, fltp, 191 kb/s (default)
    Metadata:
      handler_name    : SoundHandler
Stream mapping:
  Stream #0:0 -> #0:0 (h264 (native) -> h264 (libx264))
  Stream #1:0 -> #0:1 (aac (native) -> aac (native))
Press [q] to stop, [?] for help
[swscaler @ 00000214770a1ec0] deprecated pixel format used, make sure you did set range correctly
[libx264 @ 00000214733a2d80] using SAR=1/1
[libx264 @ 00000214733a2d80] using cpu capabilities: MMX2 SSE2Fast SSSE3 SSE4.2 AVX FMA3 BMI2 AVX2 AVX512
[libx264 @ 00000214733a2d80] profile High, level 4.2, 4:2:0, 8-bit
[libx264 @ 00000214733a2d80] 264 - core 165 r3223 0480cb0 - H.264/MPEG-4 AVC codec - Copyleft 2003-2025 - http://www.videolan.org/x264.html - options: cabac=1 ref=1 deblock=1:0:0 analyse=0x3:0x3 me=dia subme=1 psy=1 psy_rd=1.00:0.00 mixed_ref=0 me_range=16 chroma_me=1 trellis=0 8x8dct=1 cqm=0 deadzone=21,11 fast_pskip=1 chroma_qp_offset=0 threads=24 lookahead_threads=4 sliced_threads=0 nr=0 decimate=1 interlaced=0 bluray_compat=0 constrained_intra=0 bframes=3 b_pyramid=2 b_adapt=1 b_bias=0 direct=1 weightb=1 open_gop=0 weightp=1 keyint=250 keyint_min=25 scenecut=40 intra_refresh=0 rc=crf mbtree=0 crf=23.0 qcomp=0.60 qpmin=0 qpmax=69 qpstep=4 ip_ratio=1.40 pb_ratio=1.30 aq=1:1.00
Output #0, mp4, to 'D:\PythonProjects\viral-cutter-ai\benchmarks\runs\20260510_171633\roman_giertych_commentary\manual_generic\cuts_raw\segment_3_00-53_90_01-26_86.mp4':
  Metadata:
    software        : Lavf62.12.101
    encoder         : Lavf62.12.101
  Stream #0:0: Video: h264 (avc1 / 0x31637661), yuv420p(pc, bt470bg/unknown/unknown, progressive), 1080x1920 [SAR 1:1 DAR 9:16], q=2-31, 60 fps, 15360 tbn
    Metadata:
      encoder         : Lavc62.28.101 libx264
    Side data:
      CPB properties: bitrate max/min/avg: 0/0/0 buffer size: 0 vbv_delay: N/A
  Stream #0:1(eng): Audio: aac (LC) (mp4a / 0x6134706D), 48000 Hz, stereo, fltp, 192 kb/s (default)
    Metadata:
      encoder         : Lavc62.28.101 aac
      handler_name    : SoundHandler
frame=  312 fps=0.0 q=25.0 size=    2048KiB time=00:00:05.20 bitrate=3226.5kbits/s speed=10.1x elapsed=0:00:00.51    frame=  573 fps=555 q=28.0 size=    4352KiB time=00:00:09.55 bitrate=3733.2kbits/s speed=9.24x elapsed=0:00:01.03    frame=  799 fps=517 q=22.0 size=    5632KiB time=00:00:13.31 bitrate=3464.7kbits/s speed=8.61x elapsed=0:00:01.54    frame= 1140 fps=551 q=27.0 size=    8448KiB time=00:00:19.00 bitrate=3642.4kbits/s speed=9.18x elapsed=0:00:02.06    frame= 1545 fps=595 q=23.0 size=   13312KiB time=00:00:26.30 bitrate=4145.8kbits/s speed=10.1x elapsed=0:00:02.59    [mp4 @ 000002147522ac00] Starting second pass: moving the moov atom to the beginning of the file
[out#0/mp4 @ 000002147339e6c0] video:14578KiB audio:778KiB subtitle:0KiB other streams:0KiB global headers:0KiB muxing overhead: 0.339769%
frame= 1975 fps=663 q=-1.0 Lsize=   15408KiB time=00:00:32.91 bitrate=3834.7kbits/s speed=  11x elapsed=0:00:02.98    
[libx264 @ 00000214733a2d80] frame I:12    Avg QP:15.28  size: 70827
[libx264 @ 00000214733a2d80] frame P:620   Avg QP:19.25  size: 15896
[libx264 @ 00000214733a2d80] frame B:1343  Avg QP:19.18  size:  3144
[libx264 @ 00000214733a2d80] consecutive B-frames:  4.5% 12.9%  5.3% 77.4%
[libx264 @ 00000214733a2d80] mb I  I16..4: 33.8% 38.6% 27.7%
[libx264 @ 00000214733a2d80] mb P  I16..4:  7.0%  8.9%  0.8%  P16..4: 42.0%  0.0%  0.0%  0.0%  0.0%    skip:41.3%
[libx264 @ 00000214733a2d80] mb B  I16..4:  0.6%  0.8%  0.0%  B16..8: 11.3%  0.0%  0.0%  direct: 4.3%  skip:82.9%  L0:39.7% L1:53.7% BI: 6.6%
[libx264 @ 00000214733a2d80] 8x8 transform intra:52.7% inter:54.3%
[libx264 @ 00000214733a2d80] coded y,uvDC,uvAC intra: 26.5% 30.6% 8.4% inter: 3.4% 5.3% 0.1%
[libx264 @ 00000214733a2d80] i16 v,h,dc,p: 69% 16%  5% 10%
[libx264 @ 00000214733a2d80] i8 v,h,dc,ddl,ddr,vr,hd,vl,hu: 17% 19% 16%  7%  8%  8% 10%  7%  8%
[libx264 @ 00000214733a2d80] i4 v,h,dc,ddl,ddr,vr,hd,vl,hu: 20% 28% 11%  8%  7%  6%  9%  5%  7%
[libx264 @ 00000214733a2d80] i8c dc,h,v,p: 54% 19% 17% 10%
[libx264 @ 00000214733a2d80] Weighted P-Frames: Y:3.7% UV:0.3%
[libx264 @ 00000214733a2d80] kb/s:3627.99
[aac @ 00000214756ea680] Qavg: 1531.739
W0000 00:00:1778436649.737593   12064 inference_feedback_manager.cc:121] Feedback manager requires a model with a single signature inference. Disabling support for feedback tensors.
ffmpeg version 8.1.1-full_build-www.gyan.dev Copyright (c) 2000-2026 the FFmpeg developers
  built with gcc 15.2.0 (Rev13, Built by MSYS2 project)
  configuration: --enable-gpl --enable-version3 --enable-static --disable-w32threads --disable-autodetect --enable-cairo --enable-fontconfig --enable-iconv --enable-gnutls --enable-lcms2 --enable-libxml2 --enable-gmp --enable-bzlib --enable-lzma --enable-libsnappy --enable-zlib --enable-librist --enable-libsrt --enable-libssh --enable-libzmq --enable-avisynth --enable-libbluray --enable-libcaca --enable-libdvdnav --enable-libdvdread --enable-sdl2 --enable-libaribb24 --enable-libaribcaption --enable-libdav1d --enable-libdavs2 --enable-libopenjpeg --enable-libquirc --enable-libuavs3d --enable-libxevd --enable-libzvbi --enable-liboapv --enable-libqrencode --enable-librav1e --enable-libsvtav1 --enable-libvvenc --enable-libwebp --enable-libx264 --enable-libx265 --enable-libxavs2 --enable-libxeve --enable-libxvid --enable-libaom --enable-libjxl --enable-libsvtjpegxs --enable-libvpx --enable-mediafoundation --enable-libass --enable-frei0r --enable-libfreetype --enable-libfribidi --enable-libharfbuzz --enable-liblensfun --enable-libvidstab --enable-libvmaf --enable-libzimg --enable-amf --enable-cuda-llvm --enable-cuvid --enable-dxva2 --enable-d3d11va --enable-d3d12va --enable-ffnvcodec --enable-libvpl --enable-nvdec --enable-nvenc --enable-vaapi --enable-libshaderc --enable-vulkan --enable-libplacebo --enable-opencl --enable-libcdio --enable-openal --enable-libgme --enable-libmodplug --enable-libopenmpt --enable-libopencore-amrwb --enable-libmp3lame --enable-libshine --enable-libtheora --enable-libtwolame --enable-libvo-amrwbenc --enable-libcodec2 --enable-libilbc --enable-libgsm --enable-liblc3 --enable-libopencore-amrnb --enable-libopus --enable-libspeex --enable-libvorbis --enable-ladspa --enable-libbs2b --enable-libflite --enable-libmysofa --enable-librubberband --enable-libsoxr --enable-chromaprint --enable-whisper
  libavutil      60. 26.101 / 60. 26.101
  libavcodec     62. 28.101 / 62. 28.101
  libavformat    62. 12.101 / 62. 12.101
  libavdevice    62.  3.101 / 62.  3.101
  libavfilter    11. 14.101 / 11. 14.101
  libswscale      9.  5.101 /  9.  5.101
  libswresample   6.  3.101 /  6.  3.101
Input #0, avi, from 'C:\Users\Macie\AppData\Local\Temp\face_track_iwgw996n\segment_4_11-14_48_11-53_92_silent.avi':
  Metadata:
    software        : Lavf62.12.101
  Duration: 00:00:39.43, start: 0.000000, bitrate: 4667 kb/s
  Stream #0:0: Video: h264 (High) (H264 / 0x34363248), yuvj420p(pc, bt470bg/unknown/unknown, progressive), 1080x1920 [SAR 1:1 DAR 9:16], 4656 kb/s, 60 fps, 60 tbr, 60 tbn
Input #1, mov,mp4,m4a,3gp,3g2,mj2, from 'C:\Users\Macie\AppData\Local\Temp\face_track_iwgw996n\segment_4_11-14_48_11-53_92_audio.m4a':
  Metadata:
    major_brand     : M4A 
    minor_version   : 512
    compatible_brands: M4A isomiso2
    encoder         : Lavf62.12.101
  Duration: 00:00:39.44, start: 0.000000, bitrate: 193 kb/s
  Stream #1:0[0x1](eng): Audio: aac (LC) (mp4a / 0x6134706D), 48000 Hz, stereo, fltp, 191 kb/s (default)
    Metadata:
      handler_name    : SoundHandler
Stream mapping:
  Stream #0:0 -> #0:0 (h264 (native) -> h264 (libx264))
  Stream #1:0 -> #0:1 (aac (native) -> aac (native))
Press [q] to stop, [?] for help
[swscaler @ 0000018c419c6840] deprecated pixel format used, make sure you did set range correctly
[libx264 @ 0000018c3fc96a40] using SAR=1/1
[libx264 @ 0000018c3fc96a40] using cpu capabilities: MMX2 SSE2Fast SSSE3 SSE4.2 AVX FMA3 BMI2 AVX2 AVX512
[libx264 @ 0000018c3fc96a40] profile High, level 4.2, 4:2:0, 8-bit
[libx264 @ 0000018c3fc96a40] 264 - core 165 r3223 0480cb0 - H.264/MPEG-4 AVC codec - Copyleft 2003-2025 - http://www.videolan.org/x264.html - options: cabac=1 ref=1 deblock=1:0:0 analyse=0x3:0x3 me=dia subme=1 psy=1 psy_rd=1.00:0.00 mixed_ref=0 me_range=16 chroma_me=1 trellis=0 8x8dct=1 cqm=0 deadzone=21,11 fast_pskip=1 chroma_qp_offset=0 threads=24 lookahead_threads=4 sliced_threads=0 nr=0 decimate=1 interlaced=0 bluray_compat=0 constrained_intra=0 bframes=3 b_pyramid=2 b_adapt=1 b_bias=0 direct=1 weightb=1 open_gop=0 weightp=1 keyint=250 keyint_min=25 scenecut=40 intra_refresh=0 rc=crf mbtree=0 crf=23.0 qcomp=0.60 qpmin=0 qpmax=69 qpstep=4 ip_ratio=1.40 pb_ratio=1.30 aq=1:1.00
Output #0, mp4, to 'D:\PythonProjects\viral-cutter-ai\benchmarks\runs\20260510_171633\roman_giertych_commentary\manual_generic\cuts_raw\segment_4_11-14_48_11-53_92.mp4':
  Metadata:
    software        : Lavf62.12.101
    encoder         : Lavf62.12.101
  Stream #0:0: Video: h264 (avc1 / 0x31637661), yuv420p(pc, bt470bg/unknown/unknown, progressive), 1080x1920 [SAR 1:1 DAR 9:16], q=2-31, 60 fps, 15360 tbn
    Metadata:
      encoder         : Lavc62.28.101 libx264
    Side data:
      CPB properties: bitrate max/min/avg: 0/0/0 buffer size: 0 vbv_delay: N/A
  Stream #0:1(eng): Audio: aac (LC) (mp4a / 0x6134706D), 48000 Hz, stereo, fltp, 192 kb/s (default)
    Metadata:
      encoder         : Lavc62.28.101 aac
      handler_name    : SoundHandler
frame=  366 fps=0.0 q=25.0 size=    1536KiB time=00:00:06.10 bitrate=2062.8kbits/s speed=11.7x elapsed=0:00:00.52    frame=  573 fps=552 q=24.0 size=    2560KiB time=00:00:09.55 bitrate=2196.0kbits/s speed=9.19x elapsed=0:00:01.03    frame=  940 fps=603 q=23.0 size=    4864KiB time=00:00:15.66 bitrate=2543.4kbits/s speed=  10x elapsed=0:00:01.55    frame= 1331 fps=643 q=19.0 size=    6656KiB time=00:00:22.18 bitrate=2458.0kbits/s speed=10.7x elapsed=0:00:02.07    frame= 1733 fps=670 q=21.0 size=    8448KiB time=00:00:29.05 bitrate=2381.8kbits/s speed=11.2x elapsed=0:00:02.58    frame= 2280 fps=735 q=25.0 size=   11008KiB time=00:00:38.57 bitrate=2338.0kbits/s speed=12.4x elapsed=0:00:03.10    [mp4 @ 0000018c3fb50a40] Starting second pass: moving the moov atom to the beginning of the file
[out#0/mp4 @ 0000018c3dce0440] video:10742KiB audio:935KiB subtitle:0KiB other streams:0KiB global headers:0KiB muxing overhead: 0.535852%
frame= 2364 fps=747 q=-1.0 Lsize=   11739KiB time=00:00:39.40 bitrate=2440.8kbits/s speed=12.4x elapsed=0:00:03.16    
[libx264 @ 0000018c3fc96a40] frame I:13    Avg QP:14.06  size: 64148
[libx264 @ 0000018c3fc96a40] frame P:693   Avg QP:16.22  size:  9585
[libx264 @ 0000018c3fc96a40] frame B:1658  Avg QP:18.08  size:  2125
[libx264 @ 0000018c3fc96a40] consecutive B-frames:  2.6% 11.3%  1.1% 84.9%
[libx264 @ 0000018c3fc96a40] mb I  I16..4: 29.8% 47.2% 23.0%
[libx264 @ 0000018c3fc96a40] mb P  I16..4:  5.9%  5.3%  0.4%  P16..4: 25.4%  0.0%  0.0%  0.0%  0.0%    skip:63.0%
[libx264 @ 0000018c3fc96a40] mb B  I16..4:  0.3%  0.2%  0.0%  B16..8:  8.3%  0.0%  0.0%  direct: 4.7%  skip:86.6%  L0:44.9% L1:50.4% BI: 4.8%
[libx264 @ 0000018c3fc96a40] 8x8 transform intra:44.5% inter:40.1%
[libx264 @ 0000018c3fc96a40] coded y,uvDC,uvAC intra: 23.8% 33.9% 15.4% inter: 1.2% 6.3% 0.1%
[libx264 @ 0000018c3fc96a40] i16 v,h,dc,p: 67% 22%  4%  7%
[libx264 @ 0000018c3fc96a40] i8 v,h,dc,ddl,ddr,vr,hd,vl,hu: 20% 22% 19%  5%  7%  8%  8%  6%  6%
[libx264 @ 0000018c3fc96a40] i4 v,h,dc,ddl,ddr,vr,hd,vl,hu: 25% 25% 11%  8%  6%  7%  6%  6%  7%
[libx264 @ 0000018c3fc96a40] i8c dc,h,v,p: 53% 19% 20%  9%
[libx264 @ 0000018c3fc96a40] Weighted P-Frames: Y:0.6% UV:0.0%
[libx264 @ 0000018c3fc96a40] kb/s:2233.38
[aac @ 0000018c3fff9480] Qavg: 700.333
W0000 00:00:1778436687.988137   26148 inference_feedback_manager.cc:121] Feedback manager requires a model with a single signature inference. Disabling support for feedback tensors.
ffmpeg version 8.1.1-full_build-www.gyan.dev Copyright (c) 2000-2026 the FFmpeg developers
  built with gcc 15.2.0 (Rev13, Built by MSYS2 project)
  configuration: --enable-gpl --enable-version3 --enable-static --disable-w32threads --disable-autodetect --enable-cairo --enable-fontconfig --enable-iconv --enable-gnutls --enable-lcms2 --enable-libxml2 --enable-gmp --enable-bzlib --enable-lzma --enable-libsnappy --enable-zlib --enable-librist --enable-libsrt --enable-libssh --enable-libzmq --enable-avisynth --enable-libbluray --enable-libcaca --enable-libdvdnav --enable-libdvdread --enable-sdl2 --enable-libaribb24 --enable-libaribcaption --enable-libdav1d --enable-libdavs2 --enable-libopenjpeg --enable-libquirc --enable-libuavs3d --enable-libxevd --enable-libzvbi --enable-liboapv --enable-libqrencode --enable-librav1e --enable-libsvtav1 --enable-libvvenc --enable-libwebp --enable-libx264 --enable-libx265 --enable-libxavs2 --enable-libxeve --enable-libxvid --enable-libaom --enable-libjxl --enable-libsvtjpegxs --enable-libvpx --enable-mediafoundation --enable-libass --enable-frei0r --enable-libfreetype --enable-libfribidi --enable-libharfbuzz --enable-liblensfun --enable-libvidstab --enable-libvmaf --enable-libzimg --enable-amf --enable-cuda-llvm --enable-cuvid --enable-dxva2 --enable-d3d11va --enable-d3d12va --enable-ffnvcodec --enable-libvpl --enable-nvdec --enable-nvenc --enable-vaapi --enable-libshaderc --enable-vulkan --enable-libplacebo --enable-opencl --enable-libcdio --enable-openal --enable-libgme --enable-libmodplug --enable-libopenmpt --enable-libopencore-amrwb --enable-libmp3lame --enable-libshine --enable-libtheora --enable-libtwolame --enable-libvo-amrwbenc --enable-libcodec2 --enable-libilbc --enable-libgsm --enable-liblc3 --enable-libopencore-amrnb --enable-libopus --enable-libspeex --enable-libvorbis --enable-ladspa --enable-libbs2b --enable-libflite --enable-libmysofa --enable-librubberband --enable-libsoxr --enable-chromaprint --enable-whisper
  libavutil      60. 26.101 / 60. 26.101
  libavcodec     62. 28.101 / 62. 28.101
  libavformat    62. 12.101 / 62. 12.101
  libavdevice    62.  3.101 / 62.  3.101
  libavfilter    11. 14.101 / 11. 14.101
  libswscale      9.  5.101 /  9.  5.101
  libswresample   6.  3.101 /  6.  3.101
Input #0, avi, from 'C:\Users\Macie\AppData\Local\Temp\face_track__ef71c5u\segment_5_12-20_16_12-56_24_silent.avi':
  Metadata:
    software        : Lavf62.12.101
  Duration: 00:00:36.08, start: 0.000000, bitrate: 6898 kb/s
  Stream #0:0: Video: h264 (High) (H264 / 0x34363248), yuvj420p(pc, bt470bg/unknown/unknown, progressive), 1080x1920 [SAR 1:1 DAR 9:16], 6888 kb/s, 60 fps, 60 tbr, 60 tbn
Input #1, mov,mp4,m4a,3gp,3g2,mj2, from 'C:\Users\Macie\AppData\Local\Temp\face_track__ef71c5u\segment_5_12-20_16_12-56_24_audio.m4a':
  Metadata:
    major_brand     : M4A 
    minor_version   : 512
    compatible_brands: M4A isomiso2
    encoder         : Lavf62.12.101
  Duration: 00:00:36.08, start: 0.000000, bitrate: 194 kb/s
  Stream #1:0[0x1](eng): Audio: aac (LC) (mp4a / 0x6134706D), 48000 Hz, stereo, fltp, 192 kb/s (default)
    Metadata:
      handler_name    : SoundHandler
Stream mapping:
  Stream #0:0 -> #0:0 (h264 (native) -> h264 (libx264))
  Stream #1:0 -> #0:1 (aac (native) -> aac (native))
Press [q] to stop, [?] for help
[swscaler @ 0000015646be4000] deprecated pixel format used, make sure you did set range correctly
[libx264 @ 0000015644d20a00] using SAR=1/1
[libx264 @ 0000015644d20a00] using cpu capabilities: MMX2 SSE2Fast SSSE3 SSE4.2 AVX FMA3 BMI2 AVX2 AVX512
[libx264 @ 0000015644d20a00] profile High, level 4.2, 4:2:0, 8-bit
[libx264 @ 0000015644d20a00] 264 - core 165 r3223 0480cb0 - H.264/MPEG-4 AVC codec - Copyleft 2003-2025 - http://www.videolan.org/x264.html - options: cabac=1 ref=1 deblock=1:0:0 analyse=0x3:0x3 me=dia subme=1 psy=1 psy_rd=1.00:0.00 mixed_ref=0 me_range=16 chroma_me=1 trellis=0 8x8dct=1 cqm=0 deadzone=21,11 fast_pskip=1 chroma_qp_offset=0 threads=24 lookahead_threads=4 sliced_threads=0 nr=0 decimate=1 interlaced=0 bluray_compat=0 constrained_intra=0 bframes=3 b_pyramid=2 b_adapt=1 b_bias=0 direct=1 weightb=1 open_gop=0 weightp=1 keyint=250 keyint_min=25 scenecut=40 intra_refresh=0 rc=crf mbtree=0 crf=23.0 qcomp=0.60 qpmin=0 qpmax=69 qpstep=4 ip_ratio=1.40 pb_ratio=1.30 aq=1:1.00
Output #0, mp4, to 'D:\PythonProjects\viral-cutter-ai\benchmarks\runs\20260510_171633\roman_giertych_commentary\manual_generic\cuts_raw\segment_5_12-20_16_12-56_24.mp4':
  Metadata:
    software        : Lavf62.12.101
    encoder         : Lavf62.12.101
  Stream #0:0: Video: h264 (avc1 / 0x31637661), yuv420p(pc, bt470bg/unknown/unknown, progressive), 1080x1920 [SAR 1:1 DAR 9:16], q=2-31, 60 fps, 15360 tbn
    Metadata:
      encoder         : Lavc62.28.101 libx264
    Side data:
      CPB properties: bitrate max/min/avg: 0/0/0 buffer size: 0 vbv_delay: N/A
  Stream #0:1(eng): Audio: aac (LC) (mp4a / 0x6134706D), 48000 Hz, stereo, fltp, 192 kb/s (default)
    Metadata:
      encoder         : Lavc62.28.101 aac
      handler_name    : SoundHandler
frame=  287 fps=0.0 q=28.0 size=    2560KiB time=00:00:04.78 bitrate=4384.4kbits/s speed=9.17x elapsed=0:00:00.52    frame=  573 fps=551 q=28.0 size=    4864KiB time=00:00:09.55 bitrate=4172.4kbits/s speed=9.18x elapsed=0:00:01.04    frame=  820 fps=525 q=25.0 size=    6400KiB time=00:00:13.66 bitrate=3836.3kbits/s speed=8.76x elapsed=0:00:01.56    frame= 1201 fps=579 q=20.0 size=    8448KiB time=00:00:20.01 bitrate=3457.4kbits/s speed=9.64x elapsed=0:00:02.07    frame= 1601 fps=621 q=25.0 size=   11520KiB time=00:00:27.22 bitrate=3466.8kbits/s speed=10.6x elapsed=0:00:02.57    frame= 2124 fps=683 q=20.0 size=   15104KiB time=00:00:35.94 bitrate=3442.1kbits/s speed=11.6x elapsed=0:00:03.10    [mp4 @ 000001564527af40] Starting second pass: moving the moov atom to the beginning of the file
[out#0/mp4 @ 0000015644c5ad00] video:14538KiB audio:856KiB subtitle:0KiB other streams:0KiB global headers:0KiB muxing overhead: 0.344994%
frame= 2163 fps=691 q=-1.0 Lsize=   15446KiB time=00:00:36.05 bitrate=3510.0kbits/s speed=11.5x elapsed=0:00:03.13    
[libx264 @ 0000015644d20a00] frame I:11    Avg QP:15.31  size: 61111
[libx264 @ 0000015644d20a00] frame P:995   Avg QP:16.95  size: 10884
[libx264 @ 0000015644d20a00] frame B:1157  Avg QP:20.80  size:  2925
[libx264 @ 0000015644d20a00] consecutive B-frames: 27.8%  2.2%  1.0% 69.0%
[libx264 @ 0000015644d20a00] mb I  I16..4: 35.4% 41.2% 23.4%
[libx264 @ 0000015644d20a00] mb P  I16..4:  3.8%  7.5%  0.8%  P16..4: 23.3%  0.0%  0.0%  0.0%  0.0%    skip:64.5%
[libx264 @ 0000015644d20a00] mb B  I16..4:  0.5%  0.9%  0.1%  B16..8: 12.0%  0.0%  0.0%  direct: 3.3%  skip:83.2%  L0:43.4% L1:50.4% BI: 6.3%
[libx264 @ 0000015644d20a00] 8x8 transform intra:60.8% inter:48.7%
[libx264 @ 0000015644d20a00] coded y,uvDC,uvAC intra: 35.1% 17.3% 5.9% inter: 2.9% 4.0% 0.0%
[libx264 @ 0000015644d20a00] i16 v,h,dc,p: 49% 31%  4% 15%
[libx264 @ 0000015644d20a00] i8 v,h,dc,ddl,ddr,vr,hd,vl,hu: 16% 23% 13%  7%  8%  8% 11%  7%  8%
[libx264 @ 0000015644d20a00] i4 v,h,dc,ddl,ddr,vr,hd,vl,hu: 17% 32%  8%  8%  7%  6%  9%  5%  8%
[libx264 @ 0000015644d20a00] i8c dc,h,v,p: 74% 10% 10%  5%
[libx264 @ 0000015644d20a00] Weighted P-Frames: Y:0.1% UV:0.0%
[libx264 @ 0000015644d20a00] kb/s:3303.35
[aac @ 00000156451c8e00] Qavg: 670.794
Cutting segment 1: 1194.36s - 1231.18s -> D:\PythonProjects\viral-cutter-ai\benchmarks\runs\20260510_171633\roman_giertych_commentary\manual_generic\cuts_raw\segment_1_19-54_36_20-31_18.mp4
Cutting segment 2: 1149.66s - 1181.82s -> D:\PythonProjects\viral-cutter-ai\benchmarks\runs\20260510_171633\roman_giertych_commentary\manual_generic\cuts_raw\segment_2_19-09_66_19-41_82.mp4
Cutting segment 3: 53.90s - 86.86s -> D:\PythonProjects\viral-cutter-ai\benchmarks\runs\20260510_171633\roman_giertych_commentary\manual_generic\cuts_raw\segment_3_00-53_90_01-26_86.mp4
Cutting segment 4: 674.48s - 713.92s -> D:\PythonProjects\viral-cutter-ai\benchmarks\runs\20260510_171633\roman_giertych_commentary\manual_generic\cuts_raw\segment_4_11-14_48_11-53_92.mp4
Cutting segment 5: 740.16s - 776.24s -> D:\PythonProjects\viral-cutter-ai\benchmarks\runs\20260510_171633\roman_giertych_commentary\manual_generic\cuts_raw\segment_5_12-20_16_12-56_24.mp4
Done. Files saved in D:\PythonProjects\viral-cutter-ai\benchmarks\runs\20260510_171633\roman_giertych_commentary\manual_generic\cuts_raw
$ D:\PythonProjects\viral-cutter-ai\.venv\Scripts\python.exe D:\PythonProjects\viral-cutter-ai\cutter.py --video D:\PythonProjects\viral-cutter-ai\benchmarks\assets\roman_giertych_commentary\input\source.mp4 --windows D:\PythonProjects\viral-cutter-ai\benchmarks\runs\20260510_171633\roman_giertych_commentary\manual_generic\top_windows.json --transcript D:\PythonProjects\viral-cutter-ai\benchmarks\runs\20260510_171633\roman_giertych_commentary\shared\transcript.json --output-dir D:\PythonProjects\viral-cutter-ai\benchmarks\runs\20260510_171633\roman_giertych_commentary\manual_generic\cuts_raw --cutting-log D:\PythonProjects\viral-cutter-ai\benchmarks\runs\20260510_171633\roman_giertych_commentary\manual_generic\cutting_logic.json

